<svg viewBox="0 0 300 316" xmlns="http://www.w3.org/2000/svg" xml:space="preserve" style="fill-rule:evenodd;clip-rule:evenodd;stroke-linejoin:round;stroke-miterlimit:2"><path d="M246.909 81.709a349 349 0 0 1 3.879 8.748c30.447 71.192 34.871 89.218 28.102 114.498-12.664 47.295-102.37 95.58-163.55 88.033-84.868-10.469-110.232-50.29-83.086-134.37.691.435 2.106 2.311 2.704 4.682 9.933 39.425 77.984 62.775 121.542 41.704 44.721-21.633 83.078-67.928 88.772-105.245.48-3.145.728-6.227.728-9.225 0-2.066.36-8.268.909-8.825" style="fill:#778b95" transform="translate(-4.56 -5.338)scale(.9788)"/><path d="M32.254 158.618c2.475-7.667 5.387-15.703 8.731-24.118 21.6-54.364 72.148-100.908 121.52-111.897 36.96-8.226 61.025 8.349 84.404 59.106-.549.557-.909 6.759-.909 8.825 0 2.998-.248 6.08-.728 9.225-5.694 37.317-44.051 83.612-88.772 105.245-43.558 21.071-111.609-2.279-121.542-41.704-.598-2.371-2.013-4.247-2.704-4.682" style="fill:#98b2be" transform="translate(-4.56 -5.338)scale(.9788)"/><path d="M159.5 8.092C78.045 27.918 13.549 114.781 5.084 216.058-.883 287.448 55.983 328 162.058 328c134.414 0 179.26-66.831 129.191-192.52C249.069 29.594 213.291-5 159.5 8.092m3.005 14.511C113.133 33.592 62.585 80.136 40.985 134.5.977 235.191 22.733 281.564 115.34 292.988c61.18 7.547 150.886-40.738 163.55-88.033 6.769-25.28 2.345-43.306-28.102-114.498-24.632-57.593-49.276-76.535-88.283-67.854" style="fill:#323e4b" transform="translate(-4.56 -5.338)scale(.9788)"/></svg>